<?xml version="1.0" encoding="UTF-8" standalone="no"?>
<svg
   xmlns:dc="http://purl.org/dc/elements/1.1/"
   xmlns:cc="http://creativecommons.org/ns#"
   xmlns:rdf="http://www.w3.org/1999/02/22-rdf-syntax-ns#"
   xmlns:svg="http://www.w3.org/2000/svg"
   xmlns="http://www.w3.org/2000/svg"
   xmlns:sodipodi="http://sodipodi.sourceforge.net/DTD/sodipodi-0.dtd"
   xmlns:inkscape="http://www.inkscape.org/namespaces/inkscape"
   sodipodi:docname="LogoYT.svg"
   inkscape:version="1.0 (4035a4fb49, 2020-05-01)"
   id="svg969"
   version="1.1"
   viewBox="0 0 210 297"
   height="297mm"
   width="210mm">
  <defs
     id="defs963" />
  <sodipodi:namedview
     inkscape:window-maximized="1"
     inkscape:window-y="-8"
     inkscape:window-x="-8"
     inkscape:window-height="1017"
     inkscape:window-width="1920"
     showgrid="false"
     inkscape:document-rotation="0"
     inkscape:current-layer="layer1"
     inkscape:document-units="mm"
     inkscape:cy="118.37642"
     inkscape:cx="-519.74196"
     inkscape:zoom="0.48188921"
     inkscape:pageshadow="2"
     inkscape:pageopacity="0.0"
     borderopacity="1.0"
     bordercolor="#666666"
     pagecolor="#ffffff"
     id="base" />
  <metadata
     id="metadata966">
    <rdf:RDF>
      <cc:Work
         rdf:about="">
        <dc:format>image/svg+xml</dc:format>
        <dc:type
           rdf:resource="http://purl.org/dc/dcmitype/StillImage" />
        <dc:title></dc:title>
      </cc:Work>
    </rdf:RDF>
  </metadata>
  <g
     id="layer1"
     inkscape:groupmode="layer"
     inkscape:label="Capa 1">
    <path
       inkscape:export-ydpi="5"
       inkscape:export-xdpi="5"
       id="path1560"
       d="m -9.2985705,141.30193 c -19.7503915,-0.3857 -33.0922025,-1.39678 -37.1220535,-2.81315 -3.47305,-1.22069 -6.74601,-4.12584 -8.36935,-7.42883 -4.713931,-9.59137 -4.741781,-54.509792 -0.04,-64.073073 1.71472,-3.48747 4.78065,-6.23509 8.362,-7.49384 5.278541,-1.85525 21.782882,-2.79118 49.2056145,-2.79033 26.9423825,8.2e-4 43.3380235,0.9422 48.5961745,2.79033 3.58135,1.25875 6.64729,4.00637 8.362,7.49384 3.253761,6.617651 4.564951,32.724463 2.59409,51.650293 -0.9428,9.05364 -2.17092,12.87402 -5.12778,15.95135 -3.66285,3.81211 -6.939201,4.86026 -17.705541,5.6642 -10.383161,0.7753 -35.3108234,1.31178 -48.7554345,1.04921 z M 17.905152,101.49605 c 2.05709,-1.17604 3.7945,-2.22617 3.86092,-2.33362 0.1328,-0.2149 -31.0116425,-18.310721 -31.5143926,-18.310721 -0.3321004,0 -0.4677004,36.004601 -0.1368,36.335511 0.096,0.096 5.5470805,-2.9136 12.112681,-6.68885 6.5656006,-3.77524 13.6205316,-7.82629 15.6776216,-9.00232 z"
       style="fill:#ff0000;stroke-width:0.304722" />
  </g>
</svg>
